<?xml version="1.0" standalone="no"?>
<!DOCTYPE svg PUBLIC "-//W3C//DTD SVG 20010904//EN"
 "http://www.w3.org/TR/2001/REC-SVG-20010904/DTD/svg10.dtd">
<svg version="1.0" xmlns="http://www.w3.org/2000/svg"
 width="260.000000pt" height="260.000000pt" viewBox="0 0 260.000000 260.000000"
 preserveAspectRatio="xMidYMid meet">
<metadata>
Created by potrace 1.11, written by Peter Selinger 2001-2013
</metadata>
<g transform="translate(0.000000,260.000000) scale(0.100000,-0.100000)"
fill="#000000" stroke="none">
<path d="M1091 2574 c-180 -30 -398 -122 -547 -231 -75 -55 -75 -55 -190 -70
-83 -12 -122 -21 -140 -36 -26 -20 -26 -21 -23 -146 l2 -126 -50 -105 c-181
-376 -175 -786 17 -1158 183 -355 529 -608 927 -677 111 -19 326 -19 439 0
178 31 373 114 527 222 l82 57 172 6 c142 4 175 8 189 21 26 26 10 51 -76 118
-44 34 -80 65 -80 69 0 4 19 34 41 67 88 132 163 316 195 483 21 107 23 336 5
442 -29 166 -116 380 -213 523 -50 73 -198 229 -273 287 -29 23 -56 52 -59 66
-11 44 -41 64 -95 64 -32 0 -70 10 -112 29 -219 99 -500 135 -738 95z m894
-159 c0 -6 -48 -13 -110 -17 -116 -8 -219 -21 -480 -63 -88 -13 -317 -41 -510
-60 -438 -44 -594 -63 -624 -76 -22 -9 -23 -12 -16 -92 3 -45 13 -134 21 -197
8 -63 19 -149 24 -190 9 -76 51 -609 73 -934 l12 -180 200 -46 c110 -26 272
-68 360 -93 88 -25 161 -44 163 -42 2 2 -19 70 -47 150 -50 143 -59 175 -42
145 13 -22 112 -312 108 -316 -3 -4 -176 45 -272 76 -33 11 -156 42 -274 69
-117 27 -216 53 -220 58 -5 4 -18 157 -30 338 -27 387 -65 825 -86 980 -12 94
-21 305 -12 305 1 0 65 9 142 20 77 10 279 33 450 50 366 36 517 54 681 81
276 44 489 59 489 34z m41 -122 c-5 -5 -36 86 -35 101 0 6 9 -13 20 -43 10
-30 17 -56 15 -58z m-149 34 c28 -17 263 -753 263 -822 0 -37 -7 -49 -56 -104
-31 -34 -69 -68 -85 -76 -24 -13 -88 -15 -398 -13 -285 2 -373 0 -382 -9 -16
-15 76 -107 370 -373 107 -96 219 -197 249 -225 30 -27 91 -90 134 -140 66
-76 76 -91 61 -97 -10 -4 -99 -14 -198 -23 -99 -9 -229 -25 -289 -36 -60 -10
-113 -19 -117 -19 -10 0 -44 59 -185 327 -68 129 -144 282 -170 340 -25 58
-59 127 -75 154 l-31 49 -61 0 c-79 0 -137 -16 -137 -37 0 -9 20 -75 44 -147
95 -284 147 -457 144 -478 -3 -20 -8 -22 -48 -20 -63 4 -246 31 -297 44 -35 8
-42 14 -47 41 -17 97 -146 1380 -146 1455 0 40 3 44 34 57 19 8 91 22 161 30
69 9 149 20 176 25 27 5 159 21 292 35 133 14 307 34 387 45 80 11 163 21 185
24 53 5 210 0 222 -7z m198 -157 c14 -40 23 -75 21 -77 -2 -2 -14 26 -26 64
-13 37 -25 75 -28 83 -3 8 -2 12 1 9 4 -3 18 -39 32 -79z m105 -306 c39 -115
70 -213 69 -219 0 -5 -32 82 -70 195 -83 245 -83 247 -75 239 4 -3 38 -100 76
-215z m130 -409 c0 -25 -300 -246 -336 -247 -58 -1 -486 25 -524 32 -52 10
100 5 361 -11 l166 -11 41 26 c65 41 282 206 282 215 0 4 -9 34 -20 66 -11 32
-20 63 -19 69 1 13 49 -123 49 -139z m-1410 -252 c-14 -2 -30 -6 -37 -8 -8 -3
7 -60 47 -181 33 -98 58 -179 56 -181 -2 -2 -31 76 -65 173 -66 192 -67 205
-7 203 26 -2 27 -2 6 -6z m118 -168 c33 -72 92 -197 132 -280 97 -203 223
-495 216 -502 -3 -4 -8 -4 -10 -2 -2 2 -49 110 -104 239 -55 129 -148 335
-206 457 -58 122 -106 225 -106 229 0 21 24 -23 78 -141z m1327 -676 c-408
-26 -533 -42 -765 -98 -68 -17 -145 -30 -170 -30 l-45 1 55 9 c30 5 111 23
180 39 231 54 520 87 760 87 l115 0 -130 -8z"/>
<path d="M794 1935 c-12 -30 20 -378 36 -406 6 -9 54 -3 201 24 107 19 216 38
242 41 87 10 87 10 87 147 0 66 -5 129 -10 139 -6 11 -25 21 -43 24 -101 15
-297 36 -394 42 -101 6 -113 5 -119 -11z m391 -65 c28 -7 55 -17 60 -23 7 -7
3 -8 -10 -3 -42 15 -119 26 -236 32 -135 8 -139 6 -138 -56 0 -19 6 -68 13
-107 7 -40 9 -73 5 -73 -9 0 -29 116 -29 173 0 83 -5 81 149 74 75 -3 159 -11
186 -17z m105 -95 c0 -73 -12 -91 -73 -109 -72 -21 -281 -66 -307 -66 -11 0
-20 7 -20 15 0 8 8 15 17 15 35 0 329 72 341 84 7 7 14 35 16 62 4 59 4 57 16
49 6 -3 10 -26 10 -50z"/>
</g>
</svg>
